<svg width="200" height="200" viewBox="0 0 200 200" fill="none" xmlns="http://www.w3.org/2000/svg">
<circle opacity="0.7" cx="100" cy="100" r="100" fill="#CF5757"/>
<path d="M54.0289 70V55.4545H59.1142C60.1274 55.4545 60.9631 55.6297 61.6213 55.9801C62.2794 56.3258 62.7695 56.7921 63.0914 57.3793C63.4134 57.9616 63.5744 58.608 63.5744 59.3182C63.5744 59.9432 63.4631 60.4593 63.2406 60.8665C63.0228 61.2737 62.734 61.5956 62.3741 61.8324C62.019 62.0691 61.6331 62.2443 61.2164 62.358V62.5C61.6615 62.5284 62.109 62.6847 62.5588 62.9688C63.0086 63.2528 63.385 63.66 63.688 64.1903C63.9911 64.7206 64.1426 65.3693 64.1426 66.1364C64.1426 66.8655 63.9769 67.5213 63.6454 68.1037C63.314 68.6861 62.7908 69.1477 62.0758 69.4886C61.3609 69.8295 60.4305 70 59.2846 70H54.0289ZM55.7903 68.4375H59.2846C60.4352 68.4375 61.252 68.215 61.7349 67.7699C62.2226 67.3201 62.4664 66.7756 62.4664 66.1364C62.4664 65.6439 62.341 65.1894 62.09 64.7727C61.8391 64.3513 61.4816 64.0152 61.0176 63.7642C60.5536 63.5085 60.0043 63.3807 59.3699 63.3807H55.7903V68.4375ZM55.7903 61.8466H59.0574C59.5877 61.8466 60.0659 61.7424 60.492 61.5341C60.9229 61.3258 61.2638 61.0322 61.5147 60.6534C61.7704 60.2746 61.8983 59.8295 61.8983 59.3182C61.8983 58.679 61.6757 58.1368 61.2306 57.6918C60.7856 57.242 60.0801 57.017 59.1142 57.017H55.7903V61.8466ZM68.2583 63.0398H71.3833C72.6618 63.0398 73.6395 63.3641 74.3166 64.0128C74.9937 64.6615 75.3322 65.483 75.3322 66.4773C75.3322 67.1307 75.1807 67.7249 74.8777 68.2599C74.5746 68.7902 74.1296 69.214 73.5424 69.5312C72.9553 69.8438 72.2356 70 71.3833 70H66.8095V59.0909H68.4856V68.4375H71.3833C72.0462 68.4375 72.5907 68.2623 73.0169 67.9119C73.443 67.5616 73.6561 67.1117 73.6561 66.5625C73.6561 65.9848 73.443 65.5137 73.0169 65.1491C72.5907 64.7846 72.0462 64.6023 71.3833 64.6023H68.2583V63.0398ZM77.0652 70V59.0909H78.7413V70H77.0652ZM89.9061 55L90.7583 56.0227C90.4269 56.3447 90.0434 56.5696 89.6078 56.6974C89.1722 56.8253 88.6797 56.9034 88.1305 56.9318C87.5813 56.9602 86.9705 56.9886 86.2981 57.017C85.5405 57.0455 84.9132 57.2301 84.416 57.571C83.9189 57.9119 83.5353 58.4044 83.2654 59.0483C82.9956 59.6922 82.8227 60.483 82.747 61.4205H82.889C83.2583 60.7386 83.7697 60.2367 84.4231 59.9148C85.0765 59.5928 85.7773 59.4318 86.5254 59.4318C87.3777 59.4318 88.1447 59.6307 88.8265 60.0284C89.5083 60.4261 90.0481 61.0156 90.4458 61.7969C90.8436 62.5781 91.0424 63.5417 91.0424 64.6875C91.0424 65.8286 90.8388 66.8134 90.4316 67.642C90.0292 68.4706 89.4634 69.1098 88.7342 69.5597C88.0098 70.0047 87.1599 70.2273 86.1845 70.2273C85.2091 70.2273 84.3545 69.9976 83.6206 69.5384C82.8867 69.0743 82.3161 68.3878 81.9089 67.4787C81.5017 66.5649 81.2981 65.4356 81.2981 64.0909V62.9261C81.2981 60.4972 81.71 58.6553 82.5339 57.4006C83.3625 56.1458 84.6078 55.4972 86.2697 55.4545C86.8568 55.4356 87.38 55.4309 87.8393 55.4403C88.2986 55.4498 88.6987 55.4285 89.0396 55.3764C89.3805 55.3243 89.6693 55.1989 89.9061 55ZM86.1845 68.7216C86.8426 68.7216 87.4084 68.5559 87.8819 68.2244C88.3601 67.893 88.7271 67.4266 88.9828 66.8253C89.2385 66.2192 89.3663 65.5066 89.3663 64.6875C89.3663 63.892 89.2361 63.215 88.9757 62.6562C88.72 62.0975 88.353 61.6714 87.8748 61.3778C87.3966 61.0843 86.8237 60.9375 86.1561 60.9375C85.6684 60.9375 85.2304 61.0204 84.8422 61.1861C84.4539 61.3518 84.1225 61.5956 83.8478 61.9176C83.5732 62.2396 83.3601 62.6326 83.2086 63.0966C83.0618 63.5606 82.9837 64.0909 82.9743 64.6875C82.9743 65.9091 83.2607 66.8868 83.8336 67.6207C84.4065 68.3546 85.1902 68.7216 86.1845 68.7216ZM98.1802 70.2273C97.1291 70.2273 96.2224 69.9953 95.46 69.5312C94.7025 69.0625 94.1177 68.4091 93.7058 67.571C93.2986 66.7282 93.095 65.7481 93.095 64.6307C93.095 63.5133 93.2986 62.5284 93.7058 61.6761C94.1177 60.8191 94.6906 60.1515 95.4245 59.6733C96.1632 59.1903 97.0249 58.9489 98.0098 58.9489C98.5779 58.9489 99.139 59.0436 99.693 59.233C100.247 59.4223 100.751 59.7301 101.206 60.1562C101.66 60.5777 102.023 61.1364 102.292 61.8324C102.562 62.5284 102.697 63.3854 102.697 64.4034V65.1136H94.2882V63.6648H100.993C100.993 63.0492 100.87 62.5 100.623 62.017C100.382 61.5341 100.036 61.1529 99.5865 60.8736C99.1414 60.5942 98.6158 60.4545 98.0098 60.4545C97.3422 60.4545 96.7645 60.6203 96.2768 60.9517C95.7939 61.2784 95.4222 61.7045 95.1618 62.2301C94.9013 62.7557 94.7711 63.3191 94.7711 63.9205V64.8864C94.7711 65.7102 94.9132 66.4086 95.1973 66.9815C95.4861 67.5497 95.8862 67.983 96.3975 68.2812C96.9089 68.5748 97.5031 68.7216 98.1802 68.7216C98.6206 68.7216 99.0183 68.66 99.3734 68.5369C99.7333 68.4091 100.043 68.2197 100.304 67.9688C100.564 67.7131 100.765 67.3958 100.907 67.017L102.527 67.4716C102.356 68.0208 102.07 68.5038 101.667 68.9205C101.265 69.3324 100.768 69.6544 100.176 69.8864C99.5841 70.1136 98.9189 70.2273 98.1802 70.2273ZM105.247 74.0909V59.0909H106.866V60.8239H107.065C107.188 60.6345 107.359 60.393 107.577 60.0994C107.799 59.8011 108.116 59.536 108.528 59.304C108.945 59.0672 109.508 58.9489 110.219 58.9489C111.137 58.9489 111.947 59.1785 112.648 59.6378C113.348 60.0971 113.895 60.7481 114.288 61.5909C114.681 62.4337 114.878 63.428 114.878 64.5739C114.878 65.7292 114.681 66.7306 114.288 67.5781C113.895 68.4209 113.351 69.0743 112.655 69.5384C111.959 69.9976 111.156 70.2273 110.247 70.2273C109.546 70.2273 108.985 70.1113 108.564 69.8793C108.142 69.6425 107.818 69.375 107.591 69.0767C107.363 68.7737 107.188 68.5227 107.065 68.3239H106.923V74.0909H105.247ZM106.895 64.5455C106.895 65.3693 107.015 66.0961 107.257 66.7259C107.498 67.3509 107.851 67.8409 108.315 68.196C108.779 68.5464 109.347 68.7216 110.02 68.7216C110.72 68.7216 111.305 68.5369 111.774 68.1676C112.247 67.7936 112.603 67.2917 112.839 66.6619C113.081 66.0275 113.202 65.322 113.202 64.5455C113.202 63.7784 113.083 63.0871 112.846 62.4716C112.614 61.8513 112.262 61.3613 111.788 61.0014C111.319 60.6368 110.73 60.4545 110.02 60.4545C109.338 60.4545 108.765 60.6274 108.301 60.973C107.837 61.3139 107.487 61.7921 107.25 62.4077C107.013 63.0185 106.895 63.7311 106.895 64.5455ZM119.111 67.5284L124.366 59.0909H126.298V70H124.622V61.5625L119.395 70H117.434V59.0909H119.111V67.5284ZM127.884 60.6534V59.0909H136.747V60.6534H133.168V70H131.492V60.6534H127.884ZM143.2 70.2273C142.149 70.2273 141.242 69.9953 140.48 69.5312C139.722 69.0625 139.137 68.4091 138.725 67.571C138.318 66.7282 138.115 65.7481 138.115 64.6307C138.115 63.5133 138.318 62.5284 138.725 61.6761C139.137 60.8191 139.71 60.1515 140.444 59.6733C141.183 59.1903 142.044 58.9489 143.029 58.9489C143.597 58.9489 144.159 59.0436 144.713 59.233C145.267 59.4223 145.771 59.7301 146.225 60.1562C146.68 60.5777 147.042 61.1364 147.312 61.8324C147.582 62.5284 147.717 63.3854 147.717 64.4034V65.1136H139.308V63.6648H146.012C146.012 63.0492 145.889 62.5 145.643 62.017C145.401 61.5341 145.056 61.1529 144.606 60.8736C144.161 60.5942 143.635 60.4545 143.029 60.4545C142.362 60.4545 141.784 60.6203 141.296 60.9517C140.813 61.2784 140.442 61.7045 140.181 62.2301C139.921 62.7557 139.791 63.3191 139.791 63.9205V64.8864C139.791 65.7102 139.933 66.4086 140.217 66.9815C140.506 67.5497 140.906 67.983 141.417 68.2812C141.928 68.5748 142.523 68.7216 143.2 68.7216C143.64 68.7216 144.038 68.66 144.393 68.5369C144.753 68.4091 145.063 68.2197 145.323 67.9688C145.584 67.7131 145.785 67.3958 145.927 67.017L147.546 67.4716C147.376 68.0208 147.089 68.5038 146.687 68.9205C146.285 69.3324 145.787 69.6544 145.195 69.8864C144.604 70.1136 143.938 70.2273 143.2 70.2273ZM78.5158 97.125V92.4375H79.4249C79.6474 92.2055 79.8392 91.9545 80.0002 91.6847C80.1612 91.4148 80.3008 91.0952 80.4192 90.7259C80.5423 90.3518 80.6465 89.8973 80.7317 89.3622C80.8169 88.8224 80.8927 88.1714 80.959 87.4091L81.3283 83.0909H88.2601V92.4375H89.9363V97.125H88.2601V94H80.1919V97.125H78.5158ZM81.3283 92.4375H86.584V84.6534H82.8908L82.6067 87.4091C82.4883 88.5502 82.3416 89.5469 82.1664 90.3991C81.9912 91.2514 81.7118 91.9309 81.3283 92.4375ZM95.3713 94.2557C94.68 94.2557 94.0526 94.1255 93.4892 93.8651C92.9257 93.5999 92.4783 93.2188 92.1468 92.7216C91.8154 92.2197 91.6497 91.6136 91.6497 90.9034C91.6497 90.2784 91.7728 89.7718 92.019 89.3835C92.2652 88.9905 92.5943 88.6828 93.0062 88.4602C93.4181 88.2377 93.8727 88.072 94.3699 87.9631C94.8717 87.8494 95.376 87.7595 95.8826 87.6932C96.5455 87.608 97.0829 87.544 97.4949 87.5014C97.9115 87.4541 98.2145 87.3759 98.4039 87.267C98.5981 87.1581 98.6951 86.9687 98.6951 86.6989V86.642C98.6951 85.9413 98.5034 85.3968 98.1199 85.0085C97.7411 84.6203 97.1658 84.4261 96.394 84.4261C95.5938 84.4261 94.9664 84.6013 94.5119 84.9517C94.0574 85.3021 93.7377 85.6761 93.5531 86.0739L91.9622 85.5057C92.2463 84.8428 92.6251 84.3267 93.0985 83.9574C93.5768 83.5833 94.0976 83.3229 94.661 83.1761C95.2292 83.0246 95.7879 82.9489 96.3372 82.9489C96.6876 82.9489 97.09 82.9915 97.5446 83.0767C98.0038 83.1572 98.4466 83.3253 98.8727 83.581C99.3036 83.8366 99.661 84.2225 99.9451 84.7386C100.229 85.2547 100.371 85.946 100.371 86.8125V94H98.6951V92.5227H98.6099C98.4963 92.7595 98.3069 93.0128 98.0417 93.2827C97.7766 93.5526 97.4238 93.7822 96.9835 93.9716C96.5431 94.161 96.0057 94.2557 95.3713 94.2557ZM95.627 92.75C96.2898 92.75 96.8485 92.6198 97.3031 92.3594C97.7624 92.099 98.108 91.7628 98.34 91.3509C98.5768 90.9389 98.6951 90.5057 98.6951 90.0511V88.517C98.6241 88.6023 98.4679 88.6804 98.2264 88.7514C97.9896 88.8177 97.715 88.8769 97.4025 88.929C97.0948 88.9763 96.7941 89.0189 96.5005 89.0568C96.2117 89.09 95.9773 89.1184 95.7974 89.142C95.3618 89.1989 94.9546 89.2912 94.5758 89.419C94.2018 89.5421 93.8987 89.7292 93.6667 89.9801C93.4395 90.2263 93.3258 90.5625 93.3258 90.9886C93.3258 91.571 93.5413 92.0114 93.9721 92.3097C94.4077 92.6032 94.9593 92.75 95.627 92.75ZM101.946 84.6534V83.0909H110.81V84.6534H107.23V94H105.554V84.6534H101.946ZM114.334 98.0909C114.05 98.0909 113.797 98.0672 113.574 98.0199C113.352 97.9773 113.198 97.9347 113.113 97.892L113.539 96.4148C113.946 96.5189 114.306 96.5568 114.618 96.5284C114.931 96.5 115.208 96.3603 115.449 96.1094C115.696 95.8632 115.921 95.4631 116.124 94.9091L116.437 94.0568L112.403 83.0909H114.221L117.232 91.7841H117.346L120.357 83.0909H122.175L117.545 95.5909C117.336 96.1544 117.078 96.6207 116.77 96.9901C116.463 97.3641 116.105 97.6411 115.698 97.821C115.296 98.0009 114.841 98.0909 114.334 98.0909Z" fill="white"/>
<circle cx="100" cy="164" r="25" fill="white"/>
<path d="M102.971 155.455V170H101.21V157.301H101.124L97.5732 159.659V157.869L101.21 155.455H102.971Z" fill="#1E1E1E"/>
</svg>
