<svg width="200" height="200" viewBox="0 0 200 200" fill="none" xmlns="http://www.w3.org/2000/svg">
<circle opacity="0.7" cx="100" cy="100" r="100" fill="#579DCF"/>
<path d="M54.0289 70V55.4545H59.1142C60.1274 55.4545 60.9631 55.6297 61.6213 55.9801C62.2794 56.3258 62.7695 56.7921 63.0914 57.3793C63.4134 57.9616 63.5744 58.608 63.5744 59.3182C63.5744 59.9432 63.4631 60.4593 63.2406 60.8665C63.0228 61.2737 62.734 61.5956 62.3741 61.8324C62.019 62.0691 61.6331 62.2443 61.2164 62.358V62.5C61.6615 62.5284 62.109 62.6847 62.5588 62.9688C63.0086 63.2528 63.385 63.66 63.688 64.1903C63.9911 64.7206 64.1426 65.3693 64.1426 66.1364C64.1426 66.8655 63.9769 67.5213 63.6454 68.1037C63.314 68.6861 62.7908 69.1477 62.0758 69.4886C61.3609 69.8295 60.4305 70 59.2846 70H54.0289ZM55.7903 68.4375H59.2846C60.4352 68.4375 61.252 68.215 61.7349 67.7699C62.2226 67.3201 62.4664 66.7756 62.4664 66.1364C62.4664 65.6439 62.341 65.1894 62.09 64.7727C61.8391 64.3513 61.4816 64.0152 61.0176 63.7642C60.5536 63.5085 60.0043 63.3807 59.3699 63.3807H55.7903V68.4375ZM55.7903 61.8466H59.0574C59.5877 61.8466 60.0659 61.7424 60.492 61.5341C60.9229 61.3258 61.2638 61.0322 61.5147 60.6534C61.7704 60.2746 61.8983 59.8295 61.8983 59.3182C61.8983 58.679 61.6757 58.1368 61.2306 57.6918C60.7856 57.242 60.0801 57.017 59.1142 57.017H55.7903V61.8466ZM68.2583 63.0398H71.3833C72.6618 63.0398 73.6395 63.3641 74.3166 64.0128C74.9937 64.6615 75.3322 65.483 75.3322 66.4773C75.3322 67.1307 75.1807 67.7249 74.8777 68.2599C74.5746 68.7902 74.1296 69.214 73.5424 69.5312C72.9553 69.8438 72.2356 70 71.3833 70H66.8095V59.0909H68.4856V68.4375H71.3833C72.0462 68.4375 72.5907 68.2623 73.0169 67.9119C73.443 67.5616 73.6561 67.1117 73.6561 66.5625C73.6561 65.9848 73.443 65.5137 73.0169 65.1491C72.5907 64.7846 72.0462 64.6023 71.3833 64.6023H68.2583V63.0398ZM77.0652 70V59.0909H78.7413V70H77.0652ZM89.9061 55L90.7583 56.0227C90.4269 56.3447 90.0434 56.5696 89.6078 56.6974C89.1722 56.8253 88.6797 56.9034 88.1305 56.9318C87.5813 56.9602 86.9705 56.9886 86.2981 57.017C85.5405 57.0455 84.9132 57.2301 84.416 57.571C83.9189 57.9119 83.5353 58.4044 83.2654 59.0483C82.9956 59.6922 82.8227 60.483 82.747 61.4205H82.889C83.2583 60.7386 83.7697 60.2367 84.4231 59.9148C85.0765 59.5928 85.7773 59.4318 86.5254 59.4318C87.3777 59.4318 88.1447 59.6307 88.8265 60.0284C89.5083 60.4261 90.0481 61.0156 90.4458 61.7969C90.8436 62.5781 91.0424 63.5417 91.0424 64.6875C91.0424 65.8286 90.8388 66.8134 90.4316 67.642C90.0292 68.4706 89.4634 69.1098 88.7342 69.5597C88.0098 70.0047 87.1599 70.2273 86.1845 70.2273C85.2091 70.2273 84.3545 69.9976 83.6206 69.5384C82.8867 69.0743 82.3161 68.3878 81.9089 67.4787C81.5017 66.5649 81.2981 65.4356 81.2981 64.0909V62.9261C81.2981 60.4972 81.71 58.6553 82.5339 57.4006C83.3625 56.1458 84.6078 55.4972 86.2697 55.4545C86.8568 55.4356 87.38 55.4309 87.8393 55.4403C88.2986 55.4498 88.6987 55.4285 89.0396 55.3764C89.3805 55.3243 89.6693 55.1989 89.9061 55ZM86.1845 68.7216C86.8426 68.7216 87.4084 68.5559 87.8819 68.2244C88.3601 67.893 88.7271 67.4266 88.9828 66.8253C89.2385 66.2192 89.3663 65.5066 89.3663 64.6875C89.3663 63.892 89.2361 63.215 88.9757 62.6562C88.72 62.0975 88.353 61.6714 87.8748 61.3778C87.3966 61.0843 86.8237 60.9375 86.1561 60.9375C85.6684 60.9375 85.2304 61.0204 84.8422 61.1861C84.4539 61.3518 84.1225 61.5956 83.8478 61.9176C83.5732 62.2396 83.3601 62.6326 83.2086 63.0966C83.0618 63.5606 82.9837 64.0909 82.9743 64.6875C82.9743 65.9091 83.2607 66.8868 83.8336 67.6207C84.4065 68.3546 85.1902 68.7216 86.1845 68.7216ZM98.1802 70.2273C97.1291 70.2273 96.2224 69.9953 95.46 69.5312C94.7025 69.0625 94.1177 68.4091 93.7058 67.571C93.2986 66.7282 93.095 65.7481 93.095 64.6307C93.095 63.5133 93.2986 62.5284 93.7058 61.6761C94.1177 60.8191 94.6906 60.1515 95.4245 59.6733C96.1632 59.1903 97.0249 58.9489 98.0098 58.9489C98.5779 58.9489 99.139 59.0436 99.693 59.233C100.247 59.4223 100.751 59.7301 101.206 60.1562C101.66 60.5777 102.023 61.1364 102.292 61.8324C102.562 62.5284 102.697 63.3854 102.697 64.4034V65.1136H94.2882V63.6648H100.993C100.993 63.0492 100.87 62.5 100.623 62.017C100.382 61.5341 100.036 61.1529 99.5865 60.8736C99.1414 60.5942 98.6158 60.4545 98.0098 60.4545C97.3422 60.4545 96.7645 60.6203 96.2768 60.9517C95.7939 61.2784 95.4222 61.7045 95.1618 62.2301C94.9013 62.7557 94.7711 63.3191 94.7711 63.9205V64.8864C94.7711 65.7102 94.9132 66.4086 95.1973 66.9815C95.4861 67.5497 95.8862 67.983 96.3975 68.2812C96.9089 68.5748 97.5031 68.7216 98.1802 68.7216C98.6206 68.7216 99.0183 68.66 99.3734 68.5369C99.7333 68.4091 100.043 68.2197 100.304 67.9688C100.564 67.7131 100.765 67.3958 100.907 67.017L102.527 67.4716C102.356 68.0208 102.07 68.5038 101.667 68.9205C101.265 69.3324 100.768 69.6544 100.176 69.8864C99.5841 70.1136 98.9189 70.2273 98.1802 70.2273ZM105.247 74.0909V59.0909H106.866V60.8239H107.065C107.188 60.6345 107.359 60.393 107.577 60.0994C107.799 59.8011 108.116 59.536 108.528 59.304C108.945 59.0672 109.508 58.9489 110.219 58.9489C111.137 58.9489 111.947 59.1785 112.648 59.6378C113.348 60.0971 113.895 60.7481 114.288 61.5909C114.681 62.4337 114.878 63.428 114.878 64.5739C114.878 65.7292 114.681 66.7306 114.288 67.5781C113.895 68.4209 113.351 69.0743 112.655 69.5384C111.959 69.9976 111.156 70.2273 110.247 70.2273C109.546 70.2273 108.985 70.1113 108.564 69.8793C108.142 69.6425 107.818 69.375 107.591 69.0767C107.363 68.7737 107.188 68.5227 107.065 68.3239H106.923V74.0909H105.247ZM106.895 64.5455C106.895 65.3693 107.015 66.0961 107.257 66.7259C107.498 67.3509 107.851 67.8409 108.315 68.196C108.779 68.5464 109.347 68.7216 110.02 68.7216C110.72 68.7216 111.305 68.5369 111.774 68.1676C112.247 67.7936 112.603 67.2917 112.839 66.6619C113.081 66.0275 113.202 65.322 113.202 64.5455C113.202 63.7784 113.083 63.0871 112.846 62.4716C112.614 61.8513 112.262 61.3613 111.788 61.0014C111.319 60.6368 110.73 60.4545 110.02 60.4545C109.338 60.4545 108.765 60.6274 108.301 60.973C107.837 61.3139 107.487 61.7921 107.25 62.4077C107.013 63.0185 106.895 63.7311 106.895 64.5455ZM119.111 67.5284L124.366 59.0909H126.298V70H124.622V61.5625L119.395 70H117.434V59.0909H119.111V67.5284ZM127.884 60.6534V59.0909H136.747V60.6534H133.168V70H131.492V60.6534H127.884ZM143.2 70.2273C142.149 70.2273 141.242 69.9953 140.48 69.5312C139.722 69.0625 139.137 68.4091 138.725 67.571C138.318 66.7282 138.115 65.7481 138.115 64.6307C138.115 63.5133 138.318 62.5284 138.725 61.6761C139.137 60.8191 139.71 60.1515 140.444 59.6733C141.183 59.1903 142.044 58.9489 143.029 58.9489C143.597 58.9489 144.159 59.0436 144.713 59.233C145.267 59.4223 145.771 59.7301 146.225 60.1562C146.68 60.5777 147.042 61.1364 147.312 61.8324C147.582 62.5284 147.717 63.3854 147.717 64.4034V65.1136H139.308V63.6648H146.012C146.012 63.0492 145.889 62.5 145.643 62.017C145.401 61.5341 145.056 61.1529 144.606 60.8736C144.161 60.5942 143.635 60.4545 143.029 60.4545C142.362 60.4545 141.784 60.6203 141.296 60.9517C140.813 61.2784 140.442 61.7045 140.181 62.2301C139.921 62.7557 139.791 63.3191 139.791 63.9205V64.8864C139.791 65.7102 139.933 66.4086 140.217 66.9815C140.506 67.5497 140.906 67.983 141.417 68.2812C141.928 68.5748 142.523 68.7216 143.2 68.7216C143.64 68.7216 144.038 68.66 144.393 68.5369C144.753 68.4091 145.063 68.2197 145.323 67.9688C145.584 67.7131 145.785 67.3958 145.927 67.017L147.546 67.4716C147.376 68.0208 147.089 68.5038 146.687 68.9205C146.285 69.3324 145.787 69.6544 145.195 69.8864C144.604 70.1136 143.938 70.2273 143.2 70.2273ZM62.6937 98.0909C62.4096 98.0909 62.1563 98.0672 61.9338 98.0199C61.7112 97.9773 61.5574 97.9347 61.4721 97.892L61.8983 96.4148C62.3055 96.5189 62.6653 96.5568 62.9778 96.5284C63.2903 96.5 63.5673 96.3603 63.8088 96.1094C64.055 95.8632 64.2799 95.4631 64.4835 94.9091L64.796 94.0568L60.7619 83.0909H62.5801L65.5914 91.7841H65.7051L68.7164 83.0909H70.5346L65.9039 95.5909C65.6956 96.1544 65.4376 96.6207 65.1298 96.9901C64.822 97.3641 64.4645 97.6411 64.0574 97.821C63.6549 98.0009 63.2003 98.0909 62.6937 98.0909ZM72.747 98.0909V83.0909H74.3663V84.8239H74.5652C74.6883 84.6345 74.8587 84.393 75.0765 84.0994C75.2991 83.8011 75.6163 83.536 76.0282 83.304C76.4449 83.0672 77.0083 82.9489 77.7186 82.9489C78.6371 82.9489 79.4468 83.1785 80.1475 83.6378C80.8483 84.0971 81.3952 84.7481 81.7882 85.5909C82.1812 86.4337 82.3777 87.428 82.3777 88.5739C82.3777 89.7292 82.1812 90.7306 81.7882 91.5781C81.3952 92.4209 80.8507 93.0743 80.1547 93.5384C79.4586 93.9976 78.6561 94.2273 77.747 94.2273C77.0462 94.2273 76.4851 94.1113 76.0637 93.8793C75.6423 93.6425 75.318 93.375 75.0907 93.0767C74.8635 92.7737 74.6883 92.5227 74.5652 92.3239H74.4231V98.0909H72.747ZM74.3947 88.5455C74.3947 89.3693 74.5154 90.0961 74.7569 90.7259C74.9984 91.3509 75.3511 91.8409 75.8152 92.196C76.2792 92.5464 76.8474 92.7216 77.5197 92.7216C78.2205 92.7216 78.8052 92.5369 79.274 92.1676C79.7475 91.7936 80.1026 91.2917 80.3393 90.6619C80.5808 90.0275 80.7015 89.322 80.7015 88.5455C80.7015 87.7784 80.5832 87.0871 80.3464 86.4716C80.1144 85.8513 79.7617 85.3613 79.2882 85.0014C78.8194 84.6368 78.2299 84.4545 77.5197 84.4545C76.8379 84.4545 76.265 84.6274 75.801 84.973C75.3369 85.3139 74.9866 85.7921 74.7498 86.4077C74.5131 87.0185 74.3947 87.7311 74.3947 88.5455ZM89.3663 94.2273C88.3815 94.2273 87.5173 93.9929 86.774 93.5241C86.0353 93.0554 85.4577 92.3996 85.041 91.5568C84.6291 90.714 84.4231 89.7292 84.4231 88.6023C84.4231 87.4659 84.6291 86.474 85.041 85.6264C85.4577 84.7789 86.0353 84.1207 86.774 83.652C87.5173 83.1832 88.3815 82.9489 89.3663 82.9489C90.3511 82.9489 91.2129 83.1832 91.9515 83.652C92.6949 84.1207 93.2726 84.7789 93.6845 85.6264C94.1011 86.474 94.3095 87.4659 94.3095 88.6023C94.3095 89.7292 94.1011 90.714 93.6845 91.5568C93.2726 92.3996 92.6949 93.0554 91.9515 93.5241C91.2129 93.9929 90.3511 94.2273 89.3663 94.2273ZM89.3663 92.7216C90.1144 92.7216 90.7299 92.5298 91.2129 92.1463C91.6958 91.7628 92.0533 91.2585 92.2853 90.6335C92.5173 90.0085 92.6333 89.3314 92.6333 88.6023C92.6333 87.8731 92.5173 87.1937 92.2853 86.5639C92.0533 85.9342 91.6958 85.4252 91.2129 85.0369C90.7299 84.6487 90.1144 84.4545 89.3663 84.4545C88.6182 84.4545 88.0027 84.6487 87.5197 85.0369C87.0368 85.4252 86.6793 85.9342 86.4473 86.5639C86.2153 87.1937 86.0993 87.8731 86.0993 88.6023C86.0993 89.3314 86.2153 90.0085 86.4473 90.6335C86.6793 91.2585 87.0368 91.7628 87.5197 92.1463C88.0027 92.5298 88.6182 92.7216 89.3663 92.7216ZM96.8681 94V83.0909H101.328C102.503 83.0909 103.435 83.3561 104.127 83.8864C104.818 84.4167 105.164 85.1174 105.164 85.9886C105.164 86.6515 104.967 87.1652 104.574 87.5298C104.181 87.8897 103.677 88.1335 103.061 88.2614C103.464 88.3182 103.854 88.4602 104.233 88.6875C104.617 88.9148 104.934 89.2273 105.185 89.625C105.436 90.018 105.561 90.5009 105.561 91.0739C105.561 91.6326 105.419 92.1321 105.135 92.5724C104.851 93.0128 104.444 93.3608 103.914 93.6165C103.383 93.8722 102.749 94 102.01 94H96.8681ZM98.459 92.4659H102.01C102.588 92.4659 103.04 92.3286 103.367 92.054C103.693 91.7794 103.857 91.4053 103.857 90.9318C103.857 90.3684 103.693 89.9257 103.367 89.6037C103.04 89.277 102.588 89.1136 102.01 89.1136H98.459V92.4659ZM98.459 87.6648H101.328C101.778 87.6648 102.164 87.6032 102.486 87.4801C102.808 87.3523 103.054 87.1723 103.225 86.9403C103.4 86.7036 103.487 86.4242 103.487 86.1023C103.487 85.643 103.296 85.2831 102.912 85.0227C102.529 84.7576 102.001 84.625 101.328 84.625H98.459V87.6648ZM112.672 94.2273C111.621 94.2273 110.715 93.9953 109.952 93.5312C109.195 93.0625 108.61 92.4091 108.198 91.571C107.791 90.7282 107.587 89.7481 107.587 88.6307C107.587 87.5133 107.791 86.5284 108.198 85.6761C108.61 84.8191 109.183 84.1515 109.917 83.6733C110.655 83.1903 111.517 82.9489 112.502 82.9489C113.07 82.9489 113.631 83.0436 114.185 83.233C114.739 83.4223 115.243 83.7301 115.698 84.1562C116.153 84.5777 116.515 85.1364 116.785 85.8324C117.055 86.5284 117.189 87.3854 117.189 88.4034V89.1136H108.78V87.6648H115.485C115.485 87.0492 115.362 86.5 115.116 86.017C114.874 85.5341 114.528 85.1529 114.079 84.8736C113.634 84.5942 113.108 84.4545 112.502 84.4545C111.834 84.4545 111.257 84.6203 110.769 84.9517C110.286 85.2784 109.914 85.7045 109.654 86.2301C109.394 86.7557 109.263 87.3191 109.263 87.9205V88.8864C109.263 89.7102 109.405 90.4086 109.689 90.9815C109.978 91.5497 110.378 91.983 110.89 92.2812C111.401 92.5748 111.995 92.7216 112.672 92.7216C113.113 92.7216 113.51 92.66 113.866 92.5369C114.225 92.4091 114.536 92.2197 114.796 91.9688C115.056 91.7131 115.258 91.3958 115.4 91.017L117.019 91.4716C116.849 92.0208 116.562 92.5038 116.16 92.9205C115.757 93.3324 115.26 93.6544 114.668 93.8864C114.076 94.1136 113.411 94.2273 112.672 94.2273ZM127.04 87.7784V89.3409H121.018V87.7784H127.04ZM121.415 83.0909V94H119.739V83.0909H121.415ZM128.319 83.0909V94H126.643V83.0909H128.319ZM132.829 87.0398H135.954C137.232 87.0398 138.21 87.3641 138.887 88.0128C139.564 88.6615 139.903 89.483 139.903 90.4773C139.903 91.1307 139.751 91.7249 139.448 92.2599C139.145 92.7902 138.7 93.214 138.113 93.5312C137.526 93.8438 136.806 94 135.954 94H131.38V83.0909H133.056V92.4375H135.954C136.617 92.4375 137.161 92.2623 137.587 91.9119C138.013 91.5616 138.226 91.1117 138.226 90.5625C138.226 89.9848 138.013 89.5137 137.587 89.1491C137.161 88.7846 136.617 88.6023 135.954 88.6023H132.829V87.0398ZM46.1552 118V107.091H54.7347V118H53.0586V108.653H47.8313V118H46.1552ZM62.2276 118.227C61.2428 118.227 60.3787 117.993 59.6353 117.524C58.8967 117.055 58.319 116.4 57.9023 115.557C57.4904 114.714 57.2844 113.729 57.2844 112.602C57.2844 111.466 57.4904 110.474 57.9023 109.626C58.319 108.779 58.8967 108.121 59.6353 107.652C60.3787 107.183 61.2428 106.949 62.2276 106.949C63.2125 106.949 64.0742 107.183 64.8129 107.652C65.5562 108.121 66.1339 108.779 66.5458 109.626C66.9625 110.474 67.1708 111.466 67.1708 112.602C67.1708 113.729 66.9625 114.714 66.5458 115.557C66.1339 116.4 65.5562 117.055 64.8129 117.524C64.0742 117.993 63.2125 118.227 62.2276 118.227ZM62.2276 116.722C62.9757 116.722 63.5913 116.53 64.0742 116.146C64.5572 115.763 64.9147 115.259 65.1467 114.634C65.3787 114.009 65.4947 113.331 65.4947 112.602C65.4947 111.873 65.3787 111.194 65.1467 110.564C64.9147 109.934 64.5572 109.425 64.0742 109.037C63.5913 108.649 62.9757 108.455 62.2276 108.455C61.4795 108.455 60.864 108.649 60.381 109.037C59.8981 109.425 59.5406 109.934 59.3086 110.564C59.0766 111.194 58.9606 111.873 58.9606 112.602C58.9606 113.331 59.0766 114.009 59.3086 114.634C59.5406 115.259 59.8981 115.763 60.381 116.146C60.864 116.53 61.4795 116.722 62.2276 116.722ZM68.5646 121.125V116.438H69.4737C69.6963 116.205 69.888 115.955 70.049 115.685C70.21 115.415 70.3497 115.095 70.468 114.726C70.5911 114.352 70.6953 113.897 70.7805 113.362C70.8658 112.822 70.9415 112.171 71.0078 111.409L71.3771 107.091H78.3089V116.438H79.9851V121.125H78.3089V118H70.2408V121.125H68.5646ZM71.3771 116.438H76.6328V108.653H72.9396L72.6555 111.409C72.5372 112.55 72.3904 113.547 72.2152 114.399C72.04 115.251 71.7607 115.931 71.3771 116.438ZM88.9428 107.091V108.653H83.886V118H82.2099V107.091H88.9428ZM95.255 118.227C94.2701 118.227 93.406 117.993 92.6626 117.524C91.924 117.055 91.3464 116.4 90.9297 115.557C90.5178 114.714 90.3118 113.729 90.3118 112.602C90.3118 111.466 90.5178 110.474 90.9297 109.626C91.3464 108.779 91.924 108.121 92.6626 107.652C93.406 107.183 94.2701 106.949 95.255 106.949C96.2398 106.949 97.1016 107.183 97.8402 107.652C98.5836 108.121 99.1612 108.779 99.5732 109.626C99.9898 110.474 100.198 111.466 100.198 112.602C100.198 113.729 99.9898 114.714 99.5732 115.557C99.1612 116.4 98.5836 117.055 97.8402 117.524C97.1016 117.993 96.2398 118.227 95.255 118.227ZM95.255 116.722C96.0031 116.722 96.6186 116.53 97.1016 116.146C97.5845 115.763 97.942 115.259 98.174 114.634C98.406 114.009 98.522 113.331 98.522 112.602C98.522 111.873 98.406 111.194 98.174 110.564C97.942 109.934 97.5845 109.425 97.1016 109.037C96.6186 108.649 96.0031 108.455 95.255 108.455C94.5069 108.455 93.8913 108.649 93.4084 109.037C92.9254 109.425 92.5679 109.934 92.3359 110.564C92.1039 111.194 91.9879 111.873 91.9879 112.602C91.9879 113.331 92.1039 114.009 92.3359 114.634C92.5679 115.259 92.9254 115.763 93.4084 116.146C93.8913 116.53 94.5069 116.722 95.255 116.722ZM101.331 108.653V107.091H110.195V108.653H106.615V118H104.939V108.653H101.331ZM116.505 118.227C115.52 118.227 114.656 117.993 113.913 117.524C113.174 117.055 112.596 116.4 112.18 115.557C111.768 114.714 111.562 113.729 111.562 112.602C111.562 111.466 111.768 110.474 112.18 109.626C112.596 108.779 113.174 108.121 113.913 107.652C114.656 107.183 115.52 106.949 116.505 106.949C117.49 106.949 118.352 107.183 119.09 107.652C119.834 108.121 120.411 108.779 120.823 109.626C121.24 110.474 121.448 111.466 121.448 112.602C121.448 113.729 121.24 114.714 120.823 115.557C120.411 116.4 119.834 117.055 119.09 117.524C118.352 117.993 117.49 118.227 116.505 118.227ZM116.505 116.722C117.253 116.722 117.869 116.53 118.352 116.146C118.835 115.763 119.192 115.259 119.424 114.634C119.656 114.009 119.772 113.331 119.772 112.602C119.772 111.873 119.656 111.194 119.424 110.564C119.192 109.934 118.835 109.425 118.352 109.037C117.869 108.649 117.253 108.455 116.505 108.455C115.757 108.455 115.141 108.649 114.658 109.037C114.175 109.425 113.818 109.934 113.586 110.564C113.354 111.194 113.238 111.873 113.238 112.602C113.238 113.331 113.354 114.009 113.586 114.634C113.818 115.259 114.175 115.763 114.658 116.146C115.141 116.53 115.757 116.722 116.505 116.722ZM124.007 118V107.091H128.467C129.641 107.091 130.574 107.356 131.265 107.886C131.957 108.417 132.302 109.117 132.302 109.989C132.302 110.652 132.106 111.165 131.713 111.53C131.32 111.89 130.815 112.134 130.2 112.261C130.602 112.318 130.993 112.46 131.372 112.688C131.755 112.915 132.073 113.227 132.324 113.625C132.574 114.018 132.7 114.501 132.7 115.074C132.7 115.633 132.558 116.132 132.274 116.572C131.99 117.013 131.583 117.361 131.052 117.616C130.522 117.872 129.887 118 129.149 118H124.007ZM125.598 116.466H129.149C129.726 116.466 130.179 116.329 130.505 116.054C130.832 115.779 130.995 115.405 130.995 114.932C130.995 114.368 130.832 113.926 130.505 113.604C130.179 113.277 129.726 113.114 129.149 113.114H125.598V116.466ZM125.598 111.665H128.467C128.917 111.665 129.303 111.603 129.625 111.48C129.947 111.352 130.193 111.172 130.363 110.94C130.538 110.704 130.626 110.424 130.626 110.102C130.626 109.643 130.434 109.283 130.051 109.023C129.667 108.758 129.139 108.625 128.467 108.625H125.598V111.665ZM135.237 118V107.091H136.913V111.835H138.021L141.942 107.091H144.101L139.697 112.347L144.158 118H141.999L138.419 113.398H136.913V118H135.237ZM147.656 115.528L152.911 107.091H154.843V118H153.167V109.562L147.94 118H145.979V107.091H147.656V115.528Z" fill="white"/>
<circle cx="100" cy="164" r="25" fill="white"/>
<path d="M101.053 174.199C100.116 174.199 99.2801 174.038 98.5462 173.716C97.817 173.394 97.237 172.946 96.8061 172.374C96.38 171.796 96.148 171.126 96.1101 170.364H97.8999C97.9377 170.832 98.0987 171.237 98.3828 171.578C98.6669 171.914 99.0386 172.175 99.4979 172.359C99.9571 172.544 100.466 172.636 101.025 172.636C101.65 172.636 102.204 172.527 102.687 172.31C103.17 172.092 103.549 171.789 103.823 171.401C104.098 171.012 104.235 170.562 104.235 170.051C104.235 169.516 104.103 169.045 103.837 168.638C103.572 168.226 103.184 167.904 102.673 167.672C102.161 167.44 101.536 167.324 100.798 167.324H99.6328V165.761H100.798C101.375 165.761 101.882 165.657 102.317 165.449C102.758 165.241 103.101 164.947 103.347 164.568C103.598 164.189 103.724 163.744 103.724 163.233C103.724 162.741 103.615 162.312 103.397 161.947C103.179 161.583 102.871 161.299 102.474 161.095C102.081 160.892 101.617 160.79 101.082 160.79C100.58 160.79 100.106 160.882 99.6612 161.067C99.2209 161.247 98.861 161.509 98.5817 161.855C98.3023 162.196 98.1508 162.608 98.1271 163.091H96.4226C96.451 162.329 96.6806 161.661 97.1115 161.088C97.5424 160.51 98.1058 160.061 98.8018 159.739C99.5026 159.417 100.272 159.256 101.11 159.256C102.01 159.256 102.781 159.438 103.425 159.803C104.069 160.162 104.564 160.638 104.91 161.23C105.255 161.822 105.428 162.461 105.428 163.148C105.428 163.967 105.213 164.665 104.782 165.243C104.356 165.821 103.776 166.221 103.042 166.443V166.557C103.96 166.708 104.678 167.099 105.194 167.729C105.71 168.354 105.968 169.128 105.968 170.051C105.968 170.842 105.753 171.552 105.322 172.182C104.896 172.807 104.313 173.299 103.575 173.659C102.836 174.019 101.996 174.199 101.053 174.199Z" fill="#1E1E1E"/>
</svg>
