<svg width="200" height="200" viewBox="0 0 200 200" fill="none" xmlns="http://www.w3.org/2000/svg">
<circle opacity="0.7" cx="100" cy="100" r="100" fill="#2B2473"/>
<path d="M54.0289 70V55.4545H59.1142C60.1274 55.4545 60.9631 55.6297 61.6213 55.9801C62.2794 56.3258 62.7695 56.7921 63.0914 57.3793C63.4134 57.9616 63.5744 58.608 63.5744 59.3182C63.5744 59.9432 63.4631 60.4593 63.2406 60.8665C63.0228 61.2737 62.734 61.5956 62.3741 61.8324C62.019 62.0691 61.6331 62.2443 61.2164 62.358V62.5C61.6615 62.5284 62.109 62.6847 62.5588 62.9688C63.0086 63.2528 63.385 63.66 63.688 64.1903C63.9911 64.7206 64.1426 65.3693 64.1426 66.1364C64.1426 66.8655 63.9769 67.5213 63.6454 68.1037C63.314 68.6861 62.7908 69.1477 62.0758 69.4886C61.3609 69.8295 60.4305 70 59.2846 70H54.0289ZM55.7903 68.4375H59.2846C60.4352 68.4375 61.252 68.215 61.7349 67.7699C62.2226 67.3201 62.4664 66.7756 62.4664 66.1364C62.4664 65.6439 62.341 65.1894 62.09 64.7727C61.8391 64.3513 61.4816 64.0152 61.0176 63.7642C60.5536 63.5085 60.0043 63.3807 59.3699 63.3807H55.7903V68.4375ZM55.7903 61.8466H59.0574C59.5877 61.8466 60.0659 61.7424 60.492 61.5341C60.9229 61.3258 61.2638 61.0322 61.5147 60.6534C61.7704 60.2746 61.8983 59.8295 61.8983 59.3182C61.8983 58.679 61.6757 58.1368 61.2306 57.6918C60.7856 57.242 60.0801 57.017 59.1142 57.017H55.7903V61.8466ZM68.2583 63.0398H71.3833C72.6618 63.0398 73.6395 63.3641 74.3166 64.0128C74.9937 64.6615 75.3322 65.483 75.3322 66.4773C75.3322 67.1307 75.1807 67.7249 74.8777 68.2599C74.5746 68.7902 74.1296 69.214 73.5424 69.5312C72.9553 69.8438 72.2356 70 71.3833 70H66.8095V59.0909H68.4856V68.4375H71.3833C72.0462 68.4375 72.5907 68.2623 73.0169 67.9119C73.443 67.5616 73.6561 67.1117 73.6561 66.5625C73.6561 65.9848 73.443 65.5137 73.0169 65.1491C72.5907 64.7846 72.0462 64.6023 71.3833 64.6023H68.2583V63.0398ZM77.0652 70V59.0909H78.7413V70H77.0652ZM89.9061 55L90.7583 56.0227C90.4269 56.3447 90.0434 56.5696 89.6078 56.6974C89.1722 56.8253 88.6797 56.9034 88.1305 56.9318C87.5813 56.9602 86.9705 56.9886 86.2981 57.017C85.5405 57.0455 84.9132 57.2301 84.416 57.571C83.9189 57.9119 83.5353 58.4044 83.2654 59.0483C82.9956 59.6922 82.8227 60.483 82.747 61.4205H82.889C83.2583 60.7386 83.7697 60.2367 84.4231 59.9148C85.0765 59.5928 85.7773 59.4318 86.5254 59.4318C87.3777 59.4318 88.1447 59.6307 88.8265 60.0284C89.5083 60.4261 90.0481 61.0156 90.4458 61.7969C90.8436 62.5781 91.0424 63.5417 91.0424 64.6875C91.0424 65.8286 90.8388 66.8134 90.4316 67.642C90.0292 68.4706 89.4634 69.1098 88.7342 69.5597C88.0098 70.0047 87.1599 70.2273 86.1845 70.2273C85.2091 70.2273 84.3545 69.9976 83.6206 69.5384C82.8867 69.0743 82.3161 68.3878 81.9089 67.4787C81.5017 66.5649 81.2981 65.4356 81.2981 64.0909V62.9261C81.2981 60.4972 81.71 58.6553 82.5339 57.4006C83.3625 56.1458 84.6078 55.4972 86.2697 55.4545C86.8568 55.4356 87.38 55.4309 87.8393 55.4403C88.2986 55.4498 88.6987 55.4285 89.0396 55.3764C89.3805 55.3243 89.6693 55.1989 89.9061 55ZM86.1845 68.7216C86.8426 68.7216 87.4084 68.5559 87.8819 68.2244C88.3601 67.893 88.7271 67.4266 88.9828 66.8253C89.2385 66.2192 89.3663 65.5066 89.3663 64.6875C89.3663 63.892 89.2361 63.215 88.9757 62.6562C88.72 62.0975 88.353 61.6714 87.8748 61.3778C87.3966 61.0843 86.8237 60.9375 86.1561 60.9375C85.6684 60.9375 85.2304 61.0204 84.8422 61.1861C84.4539 61.3518 84.1225 61.5956 83.8478 61.9176C83.5732 62.2396 83.3601 62.6326 83.2086 63.0966C83.0618 63.5606 82.9837 64.0909 82.9743 64.6875C82.9743 65.9091 83.2607 66.8868 83.8336 67.6207C84.4065 68.3546 85.1902 68.7216 86.1845 68.7216ZM98.1802 70.2273C97.1291 70.2273 96.2224 69.9953 95.46 69.5312C94.7025 69.0625 94.1177 68.4091 93.7058 67.571C93.2986 66.7282 93.095 65.7481 93.095 64.6307C93.095 63.5133 93.2986 62.5284 93.7058 61.6761C94.1177 60.8191 94.6906 60.1515 95.4245 59.6733C96.1632 59.1903 97.0249 58.9489 98.0098 58.9489C98.5779 58.9489 99.139 59.0436 99.693 59.233C100.247 59.4223 100.751 59.7301 101.206 60.1562C101.66 60.5777 102.023 61.1364 102.292 61.8324C102.562 62.5284 102.697 63.3854 102.697 64.4034V65.1136H94.2882V63.6648H100.993C100.993 63.0492 100.87 62.5 100.623 62.017C100.382 61.5341 100.036 61.1529 99.5865 60.8736C99.1414 60.5942 98.6158 60.4545 98.0098 60.4545C97.3422 60.4545 96.7645 60.6203 96.2768 60.9517C95.7939 61.2784 95.4222 61.7045 95.1618 62.2301C94.9013 62.7557 94.7711 63.3191 94.7711 63.9205V64.8864C94.7711 65.7102 94.9132 66.4086 95.1973 66.9815C95.4861 67.5497 95.8862 67.983 96.3975 68.2812C96.9089 68.5748 97.5031 68.7216 98.1802 68.7216C98.6206 68.7216 99.0183 68.66 99.3734 68.5369C99.7333 68.4091 100.043 68.2197 100.304 67.9688C100.564 67.7131 100.765 67.3958 100.907 67.017L102.527 67.4716C102.356 68.0208 102.07 68.5038 101.667 68.9205C101.265 69.3324 100.768 69.6544 100.176 69.8864C99.5841 70.1136 98.9189 70.2273 98.1802 70.2273ZM105.247 74.0909V59.0909H106.866V60.8239H107.065C107.188 60.6345 107.359 60.393 107.577 60.0994C107.799 59.8011 108.116 59.536 108.528 59.304C108.945 59.0672 109.508 58.9489 110.219 58.9489C111.137 58.9489 111.947 59.1785 112.648 59.6378C113.348 60.0971 113.895 60.7481 114.288 61.5909C114.681 62.4337 114.878 63.428 114.878 64.5739C114.878 65.7292 114.681 66.7306 114.288 67.5781C113.895 68.4209 113.351 69.0743 112.655 69.5384C111.959 69.9976 111.156 70.2273 110.247 70.2273C109.546 70.2273 108.985 70.1113 108.564 69.8793C108.142 69.6425 107.818 69.375 107.591 69.0767C107.363 68.7737 107.188 68.5227 107.065 68.3239H106.923V74.0909H105.247ZM106.895 64.5455C106.895 65.3693 107.015 66.0961 107.257 66.7259C107.498 67.3509 107.851 67.8409 108.315 68.196C108.779 68.5464 109.347 68.7216 110.02 68.7216C110.72 68.7216 111.305 68.5369 111.774 68.1676C112.247 67.7936 112.603 67.2917 112.839 66.6619C113.081 66.0275 113.202 65.322 113.202 64.5455C113.202 63.7784 113.083 63.0871 112.846 62.4716C112.614 61.8513 112.262 61.3613 111.788 61.0014C111.319 60.6368 110.73 60.4545 110.02 60.4545C109.338 60.4545 108.765 60.6274 108.301 60.973C107.837 61.3139 107.487 61.7921 107.25 62.4077C107.013 63.0185 106.895 63.7311 106.895 64.5455ZM119.111 67.5284L124.366 59.0909H126.298V70H124.622V61.5625L119.395 70H117.434V59.0909H119.111V67.5284ZM127.884 60.6534V59.0909H136.747V60.6534H133.168V70H131.492V60.6534H127.884ZM143.2 70.2273C142.149 70.2273 141.242 69.9953 140.48 69.5312C139.722 69.0625 139.137 68.4091 138.725 67.571C138.318 66.7282 138.115 65.7481 138.115 64.6307C138.115 63.5133 138.318 62.5284 138.725 61.6761C139.137 60.8191 139.71 60.1515 140.444 59.6733C141.183 59.1903 142.044 58.9489 143.029 58.9489C143.597 58.9489 144.159 59.0436 144.713 59.233C145.267 59.4223 145.771 59.7301 146.225 60.1562C146.68 60.5777 147.042 61.1364 147.312 61.8324C147.582 62.5284 147.717 63.3854 147.717 64.4034V65.1136H139.308V63.6648H146.012C146.012 63.0492 145.889 62.5 145.643 62.017C145.401 61.5341 145.056 61.1529 144.606 60.8736C144.161 60.5942 143.635 60.4545 143.029 60.4545C142.362 60.4545 141.784 60.6203 141.296 60.9517C140.813 61.2784 140.442 61.7045 140.181 62.2301C139.921 62.7557 139.791 63.3191 139.791 63.9205V64.8864C139.791 65.7102 139.933 66.4086 140.217 66.9815C140.506 67.5497 140.906 67.983 141.417 68.2812C141.928 68.5748 142.523 68.7216 143.2 68.7216C143.64 68.7216 144.038 68.66 144.393 68.5369C144.753 68.4091 145.063 68.2197 145.323 67.9688C145.584 67.7131 145.785 67.3958 145.927 67.017L147.546 67.4716C147.376 68.0208 147.089 68.5038 146.687 68.9205C146.285 69.3324 145.787 69.6544 145.195 69.8864C144.604 70.1136 143.938 70.2273 143.2 70.2273ZM68.8407 94V83.0909H70.5169V87.8352H71.6248L75.5453 83.0909H77.7044L73.301 88.3466L77.7612 94H75.6021L72.0225 89.3977H70.5169V94H68.8407ZM83.5655 94.2273C82.5807 94.2273 81.7166 93.9929 80.9732 93.5241C80.2346 93.0554 79.6569 92.3996 79.2402 91.5568C78.8283 90.714 78.6223 89.7292 78.6223 88.6023C78.6223 87.4659 78.8283 86.474 79.2402 85.6264C79.6569 84.7789 80.2346 84.1207 80.9732 83.652C81.7166 83.1832 82.5807 82.9489 83.5655 82.9489C84.5504 82.9489 85.4121 83.1832 86.1507 83.652C86.8941 84.1207 87.4718 84.7789 87.8837 85.6264C88.3004 86.474 88.5087 87.4659 88.5087 88.6023C88.5087 89.7292 88.3004 90.714 87.8837 91.5568C87.4718 92.3996 86.8941 93.0554 86.1507 93.5241C85.4121 93.9929 84.5504 94.2273 83.5655 94.2273ZM83.5655 92.7216C84.3136 92.7216 84.9292 92.5298 85.4121 92.1463C85.8951 91.7628 86.2525 91.2585 86.4846 90.6335C86.7166 90.0085 86.8326 89.3314 86.8326 88.6023C86.8326 87.8731 86.7166 87.1937 86.4846 86.5639C86.2525 85.9342 85.8951 85.4252 85.4121 85.0369C84.9292 84.6487 84.3136 84.4545 83.5655 84.4545C82.8174 84.4545 82.2019 84.6487 81.7189 85.0369C81.236 85.4252 80.8785 85.9342 80.6465 86.5639C80.4145 87.1937 80.2985 87.8731 80.2985 88.6023C80.2985 89.3314 80.4145 90.0085 80.6465 90.6335C80.8785 91.2585 81.236 91.7628 81.7189 92.1463C82.2019 92.5298 82.8174 92.7216 83.5655 92.7216ZM90.1014 94V92.4375H90.4991C90.8258 92.4375 91.0981 92.3736 91.3159 92.2457C91.5337 92.1132 91.7089 91.8835 91.8414 91.5568C91.9788 91.2254 92.0829 90.7661 92.1539 90.179C92.2297 89.5871 92.2842 88.8343 92.3173 87.9205L92.5162 83.0909H99.7889V94H98.1127V84.6534H94.1071L93.9366 88.5455C93.8987 89.4403 93.8182 90.2287 93.6951 90.9105C93.5768 91.5876 93.3945 92.1558 93.1483 92.6151C92.9068 93.0743 92.5848 93.42 92.1824 93.652C91.7799 93.884 91.2756 94 90.6696 94H90.1014ZM109.114 86.983V88.5455H102.751V86.983H109.114ZM112.063 94V83.0909H116.524C117.698 83.0909 118.631 83.3561 119.322 83.8864C120.013 84.4167 120.359 85.1174 120.359 85.9886C120.359 86.6515 120.162 87.1652 119.769 87.5298C119.376 87.8897 118.872 88.1335 118.257 88.2614C118.659 88.3182 119.05 88.4602 119.428 88.6875C119.812 88.9148 120.129 89.2273 120.38 89.625C120.631 90.018 120.757 90.5009 120.757 91.0739C120.757 91.6326 120.615 92.1321 120.33 92.5724C120.046 93.0128 119.639 93.3608 119.109 93.6165C118.579 93.8722 117.944 94 117.205 94H112.063ZM113.654 92.4659H117.205C117.783 92.4659 118.235 92.3286 118.562 92.054C118.889 91.7794 119.052 91.4053 119.052 90.9318C119.052 90.3684 118.889 89.9257 118.562 89.6037C118.235 89.277 117.783 89.1136 117.205 89.1136H113.654V92.4659ZM113.654 87.6648H116.524C116.973 87.6648 117.359 87.6032 117.681 87.4801C118.003 87.3523 118.249 87.1723 118.42 86.9403C118.595 86.7036 118.683 86.4242 118.683 86.1023C118.683 85.643 118.491 85.2831 118.107 85.0227C117.724 84.7576 117.196 84.625 116.524 84.625H113.654V87.6648ZM127.726 94.2273C126.741 94.2273 125.877 93.9929 125.133 93.5241C124.395 93.0554 123.817 92.3996 123.4 91.5568C122.988 90.714 122.782 89.7292 122.782 88.6023C122.782 87.4659 122.988 86.474 123.4 85.6264C123.817 84.7789 124.395 84.1207 125.133 83.652C125.877 83.1832 126.741 82.9489 127.726 82.9489C128.711 82.9489 129.572 83.1832 130.311 83.652C131.054 84.1207 131.632 84.7789 132.044 85.6264C132.461 86.474 132.669 87.4659 132.669 88.6023C132.669 89.7292 132.461 90.714 132.044 91.5568C131.632 92.3996 131.054 93.0554 130.311 93.5241C129.572 93.9929 128.711 94.2273 127.726 94.2273ZM127.726 92.7216C128.474 92.7216 129.089 92.5298 129.572 92.1463C130.055 91.7628 130.413 91.2585 130.645 90.6335C130.877 90.0085 130.993 89.3314 130.993 88.6023C130.993 87.8731 130.877 87.1937 130.645 86.5639C130.413 85.9342 130.055 85.4252 129.572 85.0369C129.089 84.6487 128.474 84.4545 127.726 84.4545C126.978 84.4545 126.362 84.6487 125.879 85.0369C125.396 85.4252 125.039 85.9342 124.807 86.5639C124.575 87.1937 124.459 87.8731 124.459 88.6023C124.459 89.3314 124.575 90.0085 124.807 90.6335C125.039 91.2585 125.396 91.7628 125.879 92.1463C126.362 92.5298 126.978 92.7216 127.726 92.7216ZM47.0101 122.091C46.726 122.091 46.4727 122.067 46.2502 122.02C46.0276 121.977 45.8738 121.935 45.7885 121.892L46.2147 120.415C46.6219 120.519 46.9817 120.557 47.2942 120.528C47.6067 120.5 47.8837 120.36 48.1252 120.109C48.3714 119.863 48.5963 119.463 48.7999 118.909L49.1124 118.057L45.0783 107.091H46.8965L49.9078 115.784H50.0215L53.0328 107.091H54.851L50.2203 119.591C50.012 120.154 49.754 120.621 49.4462 120.99C49.1384 121.364 48.781 121.641 48.3738 121.821C47.9713 122.001 47.5167 122.091 47.0101 122.091ZM65.1404 107.091V118H63.4643V107.091H65.1404ZM64.487 112.29V113.852C64.1083 113.994 63.7318 114.12 63.3578 114.229C62.9837 114.333 62.5907 114.416 62.1788 114.477C61.7669 114.534 61.3147 114.562 60.8223 114.562C59.5865 114.562 58.5945 114.229 57.8464 113.561C57.103 112.893 56.7314 111.892 56.7314 110.557V107.062H58.4075V110.557C58.4075 111.116 58.514 111.575 58.7271 111.935C58.9402 112.295 59.229 112.562 59.5936 112.737C59.9582 112.912 60.3677 113 60.8223 113C61.5325 113 62.1741 112.936 62.747 112.808C63.3246 112.676 63.9047 112.503 64.487 112.29ZM71.426 118.256C70.7347 118.256 70.1073 118.125 69.5439 117.865C68.9804 117.6 68.533 117.219 68.2015 116.722C67.8701 116.22 67.7044 115.614 67.7044 114.903C67.7044 114.278 67.8275 113.772 68.0737 113.384C68.3199 112.991 68.649 112.683 69.0609 112.46C69.4728 112.238 69.9274 112.072 70.4245 111.963C70.9264 111.849 71.4307 111.759 71.9373 111.693C72.6002 111.608 73.1376 111.544 73.5495 111.501C73.9662 111.454 74.2692 111.376 74.4586 111.267C74.6528 111.158 74.7498 110.969 74.7498 110.699V110.642C74.7498 109.941 74.5581 109.397 74.1745 109.009C73.7958 108.62 73.2205 108.426 72.4487 108.426C71.6485 108.426 71.0211 108.601 70.5666 108.952C70.112 109.302 69.7924 109.676 69.6078 110.074L68.0169 109.506C68.301 108.843 68.6797 108.327 69.1532 107.957C69.6315 107.583 70.1523 107.323 70.7157 107.176C71.2839 107.025 71.8426 106.949 72.3919 106.949C72.7422 106.949 73.1447 106.991 73.5993 107.077C74.0585 107.157 74.5012 107.325 74.9274 107.581C75.3583 107.837 75.7157 108.223 75.9998 108.739C76.2839 109.255 76.426 109.946 76.426 110.812V118H74.7498V116.523H74.6646C74.551 116.759 74.3616 117.013 74.0964 117.283C73.8313 117.553 73.4785 117.782 73.0382 117.972C72.5978 118.161 72.0604 118.256 71.426 118.256ZM71.6816 116.75C72.3445 116.75 72.9032 116.62 73.3578 116.359C73.8171 116.099 74.1627 115.763 74.3947 115.351C74.6315 114.939 74.7498 114.506 74.7498 114.051V112.517C74.6788 112.602 74.5225 112.68 74.2811 112.751C74.0443 112.818 73.7697 112.877 73.4572 112.929C73.1494 112.976 72.8488 113.019 72.5552 113.057C72.2664 113.09 72.032 113.118 71.8521 113.142C71.4165 113.199 71.0093 113.291 70.6305 113.419C70.2565 113.542 69.9534 113.729 69.7214 113.98C69.4941 114.226 69.3805 114.562 69.3805 114.989C69.3805 115.571 69.5959 116.011 70.0268 116.31C70.4624 116.603 71.014 116.75 71.6816 116.75ZM83.9171 118.227C82.8944 118.227 82.0137 117.986 81.275 117.503C80.5364 117.02 79.9682 116.355 79.5705 115.507C79.1728 114.66 78.9739 113.691 78.9739 112.602C78.9739 111.494 79.1775 110.517 79.5847 109.669C79.9966 108.817 80.5695 108.152 81.3034 107.673C82.0421 107.19 82.9038 106.949 83.8887 106.949C84.6557 106.949 85.347 107.091 85.9625 107.375C86.5781 107.659 87.0823 108.057 87.4753 108.568C87.8683 109.08 88.1122 109.676 88.2069 110.358H86.5307C86.4029 109.861 86.1188 109.42 85.6784 109.037C85.2428 108.649 84.6557 108.455 83.9171 108.455C83.2637 108.455 82.6908 108.625 82.1983 108.966C81.7106 109.302 81.3295 109.778 81.0549 110.393C80.785 111.004 80.65 111.722 80.65 112.545C80.65 113.388 80.7826 114.122 81.0478 114.747C81.3176 115.372 81.6964 115.857 82.1841 116.203C82.6766 116.549 83.2542 116.722 83.9171 116.722C84.3527 116.722 84.748 116.646 85.1032 116.494C85.4583 116.343 85.7589 116.125 86.0051 115.841C86.2514 115.557 86.4266 115.216 86.5307 114.818H88.2069C88.1122 115.462 87.8778 116.042 87.5037 116.558C87.1344 117.07 86.6444 117.477 86.0336 117.78C85.4275 118.078 84.722 118.227 83.9171 118.227ZM89.7978 108.653V107.091H98.6614V108.653H95.0819V118H93.4057V108.653H89.7978ZM108.407 111.778V113.341H102.385V111.778H108.407ZM102.782 107.091V118H101.106V107.091H102.782ZM109.686 107.091V118H108.01V107.091H109.686ZM114.423 115.528L119.679 107.091H121.611V118H119.934V109.562L114.707 118H112.747V107.091H114.423V115.528ZM124.681 118V107.091H126.357V111.835H127.465L131.385 107.091H133.544L129.141 112.347L133.601 118H131.442L127.862 113.398H126.357V118H124.681ZM139.405 118.227C138.421 118.227 137.556 117.993 136.813 117.524C136.074 117.055 135.497 116.4 135.08 115.557C134.668 114.714 134.462 113.729 134.462 112.602C134.462 111.466 134.668 110.474 135.08 109.626C135.497 108.779 136.074 108.121 136.813 107.652C137.556 107.183 138.421 106.949 139.405 106.949C140.39 106.949 141.252 107.183 141.991 107.652C142.734 108.121 143.312 108.779 143.724 109.626C144.14 110.474 144.349 111.466 144.349 112.602C144.349 113.729 144.14 114.714 143.724 115.557C143.312 116.4 142.734 117.055 141.991 117.524C141.252 117.993 140.39 118.227 139.405 118.227ZM139.405 116.722C140.153 116.722 140.769 116.53 141.252 116.146C141.735 115.763 142.092 115.259 142.324 114.634C142.556 114.009 142.672 113.331 142.672 112.602C142.672 111.873 142.556 111.194 142.324 110.564C142.092 109.934 141.735 109.425 141.252 109.037C140.769 108.649 140.153 108.455 139.405 108.455C138.657 108.455 138.042 108.649 137.559 109.037C137.076 109.425 136.718 109.934 136.486 110.564C136.254 111.194 136.138 111.873 136.138 112.602C136.138 113.331 136.254 114.009 136.486 114.634C136.718 115.259 137.076 115.763 137.559 116.146C138.042 116.53 138.657 116.722 139.405 116.722ZM146.907 118V107.091H151.367C152.542 107.091 153.474 107.356 154.166 107.886C154.857 108.417 155.203 109.117 155.203 109.989C155.203 110.652 155.006 111.165 154.613 111.53C154.22 111.89 153.716 112.134 153.1 112.261C153.503 112.318 153.893 112.46 154.272 112.688C154.656 112.915 154.973 113.227 155.224 113.625C155.475 114.018 155.6 114.501 155.6 115.074C155.6 115.633 155.458 116.132 155.174 116.572C154.89 117.013 154.483 117.361 153.953 117.616C153.422 117.872 152.788 118 152.049 118H146.907ZM148.498 116.466H152.049C152.627 116.466 153.079 116.329 153.406 116.054C153.732 115.779 153.896 115.405 153.896 114.932C153.896 114.368 153.732 113.926 153.406 113.604C153.079 113.277 152.627 113.114 152.049 113.114H148.498V116.466ZM148.498 111.665H151.367C151.817 111.665 152.203 111.603 152.525 111.48C152.847 111.352 153.093 111.172 153.264 110.94C153.439 110.704 153.526 110.424 153.526 110.102C153.526 109.643 153.335 109.283 152.951 109.023C152.568 108.758 152.04 108.625 151.367 108.625H148.498V111.665Z" fill="white"/>
<circle cx="100" cy="164" r="25" fill="white"/>
<path d="M95.7488 171.017V169.568L102.141 159.455H103.192V161.699H102.482L97.6522 169.341V169.455H106.26V171.017H95.7488ZM102.595 174V170.577V169.902V159.455H104.271V174H102.595Z" fill="#1E1E1E"/>
</svg>
