<svg width="200" height="200" viewBox="0 0 200 200" fill="none" xmlns="http://www.w3.org/2000/svg">
<circle opacity="0.7" cx="100" cy="100" r="100" fill="#A9CF57"/>
<path d="M54.0289 70V55.4545H59.1142C60.1274 55.4545 60.9631 55.6297 61.6213 55.9801C62.2794 56.3258 62.7695 56.7921 63.0914 57.3793C63.4134 57.9616 63.5744 58.608 63.5744 59.3182C63.5744 59.9432 63.4631 60.4593 63.2406 60.8665C63.0228 61.2737 62.734 61.5956 62.3741 61.8324C62.019 62.0691 61.6331 62.2443 61.2164 62.358V62.5C61.6615 62.5284 62.109 62.6847 62.5588 62.9688C63.0086 63.2528 63.385 63.66 63.688 64.1903C63.9911 64.7206 64.1426 65.3693 64.1426 66.1364C64.1426 66.8655 63.9769 67.5213 63.6454 68.1037C63.314 68.6861 62.7908 69.1477 62.0758 69.4886C61.3609 69.8295 60.4305 70 59.2846 70H54.0289ZM55.7903 68.4375H59.2846C60.4352 68.4375 61.252 68.215 61.7349 67.7699C62.2226 67.3201 62.4664 66.7756 62.4664 66.1364C62.4664 65.6439 62.341 65.1894 62.09 64.7727C61.8391 64.3513 61.4816 64.0152 61.0176 63.7642C60.5536 63.5085 60.0043 63.3807 59.3699 63.3807H55.7903V68.4375ZM55.7903 61.8466H59.0574C59.5877 61.8466 60.0659 61.7424 60.492 61.5341C60.9229 61.3258 61.2638 61.0322 61.5147 60.6534C61.7704 60.2746 61.8983 59.8295 61.8983 59.3182C61.8983 58.679 61.6757 58.1368 61.2306 57.6918C60.7856 57.242 60.0801 57.017 59.1142 57.017H55.7903V61.8466ZM68.2583 63.0398H71.3833C72.6618 63.0398 73.6395 63.3641 74.3166 64.0128C74.9937 64.6615 75.3322 65.483 75.3322 66.4773C75.3322 67.1307 75.1807 67.7249 74.8777 68.2599C74.5746 68.7902 74.1296 69.214 73.5424 69.5312C72.9553 69.8438 72.2356 70 71.3833 70H66.8095V59.0909H68.4856V68.4375H71.3833C72.0462 68.4375 72.5907 68.2623 73.0169 67.9119C73.443 67.5616 73.6561 67.1117 73.6561 66.5625C73.6561 65.9848 73.443 65.5137 73.0169 65.1491C72.5907 64.7846 72.0462 64.6023 71.3833 64.6023H68.2583V63.0398ZM77.0652 70V59.0909H78.7413V70H77.0652ZM89.9061 55L90.7583 56.0227C90.4269 56.3447 90.0434 56.5696 89.6078 56.6974C89.1722 56.8253 88.6797 56.9034 88.1305 56.9318C87.5813 56.9602 86.9705 56.9886 86.2981 57.017C85.5405 57.0455 84.9132 57.2301 84.416 57.571C83.9189 57.9119 83.5353 58.4044 83.2654 59.0483C82.9956 59.6922 82.8227 60.483 82.747 61.4205H82.889C83.2583 60.7386 83.7697 60.2367 84.4231 59.9148C85.0765 59.5928 85.7773 59.4318 86.5254 59.4318C87.3777 59.4318 88.1447 59.6307 88.8265 60.0284C89.5083 60.4261 90.0481 61.0156 90.4458 61.7969C90.8436 62.5781 91.0424 63.5417 91.0424 64.6875C91.0424 65.8286 90.8388 66.8134 90.4316 67.642C90.0292 68.4706 89.4634 69.1098 88.7342 69.5597C88.0098 70.0047 87.1599 70.2273 86.1845 70.2273C85.2091 70.2273 84.3545 69.9976 83.6206 69.5384C82.8867 69.0743 82.3161 68.3878 81.9089 67.4787C81.5017 66.5649 81.2981 65.4356 81.2981 64.0909V62.9261C81.2981 60.4972 81.71 58.6553 82.5339 57.4006C83.3625 56.1458 84.6078 55.4972 86.2697 55.4545C86.8568 55.4356 87.38 55.4309 87.8393 55.4403C88.2986 55.4498 88.6987 55.4285 89.0396 55.3764C89.3805 55.3243 89.6693 55.1989 89.9061 55ZM86.1845 68.7216C86.8426 68.7216 87.4084 68.5559 87.8819 68.2244C88.3601 67.893 88.7271 67.4266 88.9828 66.8253C89.2385 66.2192 89.3663 65.5066 89.3663 64.6875C89.3663 63.892 89.2361 63.215 88.9757 62.6562C88.72 62.0975 88.353 61.6714 87.8748 61.3778C87.3966 61.0843 86.8237 60.9375 86.1561 60.9375C85.6684 60.9375 85.2304 61.0204 84.8422 61.1861C84.4539 61.3518 84.1225 61.5956 83.8478 61.9176C83.5732 62.2396 83.3601 62.6326 83.2086 63.0966C83.0618 63.5606 82.9837 64.0909 82.9743 64.6875C82.9743 65.9091 83.2607 66.8868 83.8336 67.6207C84.4065 68.3546 85.1902 68.7216 86.1845 68.7216ZM98.1802 70.2273C97.1291 70.2273 96.2224 69.9953 95.46 69.5312C94.7025 69.0625 94.1177 68.4091 93.7058 67.571C93.2986 66.7282 93.095 65.7481 93.095 64.6307C93.095 63.5133 93.2986 62.5284 93.7058 61.6761C94.1177 60.8191 94.6906 60.1515 95.4245 59.6733C96.1632 59.1903 97.0249 58.9489 98.0098 58.9489C98.5779 58.9489 99.139 59.0436 99.693 59.233C100.247 59.4223 100.751 59.7301 101.206 60.1562C101.66 60.5777 102.023 61.1364 102.292 61.8324C102.562 62.5284 102.697 63.3854 102.697 64.4034V65.1136H94.2882V63.6648H100.993C100.993 63.0492 100.87 62.5 100.623 62.017C100.382 61.5341 100.036 61.1529 99.5865 60.8736C99.1414 60.5942 98.6158 60.4545 98.0098 60.4545C97.3422 60.4545 96.7645 60.6203 96.2768 60.9517C95.7939 61.2784 95.4222 61.7045 95.1618 62.2301C94.9013 62.7557 94.7711 63.3191 94.7711 63.9205V64.8864C94.7711 65.7102 94.9132 66.4086 95.1973 66.9815C95.4861 67.5497 95.8862 67.983 96.3975 68.2812C96.9089 68.5748 97.5031 68.7216 98.1802 68.7216C98.6206 68.7216 99.0183 68.66 99.3734 68.5369C99.7333 68.4091 100.043 68.2197 100.304 67.9688C100.564 67.7131 100.765 67.3958 100.907 67.017L102.527 67.4716C102.356 68.0208 102.07 68.5038 101.667 68.9205C101.265 69.3324 100.768 69.6544 100.176 69.8864C99.5841 70.1136 98.9189 70.2273 98.1802 70.2273ZM105.247 74.0909V59.0909H106.866V60.8239H107.065C107.188 60.6345 107.359 60.393 107.577 60.0994C107.799 59.8011 108.116 59.536 108.528 59.304C108.945 59.0672 109.508 58.9489 110.219 58.9489C111.137 58.9489 111.947 59.1785 112.648 59.6378C113.348 60.0971 113.895 60.7481 114.288 61.5909C114.681 62.4337 114.878 63.428 114.878 64.5739C114.878 65.7292 114.681 66.7306 114.288 67.5781C113.895 68.4209 113.351 69.0743 112.655 69.5384C111.959 69.9976 111.156 70.2273 110.247 70.2273C109.546 70.2273 108.985 70.1113 108.564 69.8793C108.142 69.6425 107.818 69.375 107.591 69.0767C107.363 68.7737 107.188 68.5227 107.065 68.3239H106.923V74.0909H105.247ZM106.895 64.5455C106.895 65.3693 107.015 66.0961 107.257 66.7259C107.498 67.3509 107.851 67.8409 108.315 68.196C108.779 68.5464 109.347 68.7216 110.02 68.7216C110.72 68.7216 111.305 68.5369 111.774 68.1676C112.247 67.7936 112.603 67.2917 112.839 66.6619C113.081 66.0275 113.202 65.322 113.202 64.5455C113.202 63.7784 113.083 63.0871 112.846 62.4716C112.614 61.8513 112.262 61.3613 111.788 61.0014C111.319 60.6368 110.73 60.4545 110.02 60.4545C109.338 60.4545 108.765 60.6274 108.301 60.973C107.837 61.3139 107.487 61.7921 107.25 62.4077C107.013 63.0185 106.895 63.7311 106.895 64.5455ZM119.111 67.5284L124.366 59.0909H126.298V70H124.622V61.5625L119.395 70H117.434V59.0909H119.111V67.5284ZM127.884 60.6534V59.0909H136.747V60.6534H133.168V70H131.492V60.6534H127.884ZM143.2 70.2273C142.149 70.2273 141.242 69.9953 140.48 69.5312C139.722 69.0625 139.137 68.4091 138.725 67.571C138.318 66.7282 138.115 65.7481 138.115 64.6307C138.115 63.5133 138.318 62.5284 138.725 61.6761C139.137 60.8191 139.71 60.1515 140.444 59.6733C141.183 59.1903 142.044 58.9489 143.029 58.9489C143.597 58.9489 144.159 59.0436 144.713 59.233C145.267 59.4223 145.771 59.7301 146.225 60.1562C146.68 60.5777 147.042 61.1364 147.312 61.8324C147.582 62.5284 147.717 63.3854 147.717 64.4034V65.1136H139.308V63.6648H146.012C146.012 63.0492 145.889 62.5 145.643 62.017C145.401 61.5341 145.056 61.1529 144.606 60.8736C144.161 60.5942 143.635 60.4545 143.029 60.4545C142.362 60.4545 141.784 60.6203 141.296 60.9517C140.813 61.2784 140.442 61.7045 140.181 62.2301C139.921 62.7557 139.791 63.3191 139.791 63.9205V64.8864C139.791 65.7102 139.933 66.4086 140.217 66.9815C140.506 67.5497 140.906 67.983 141.417 68.2812C141.928 68.5748 142.523 68.7216 143.2 68.7216C143.64 68.7216 144.038 68.66 144.393 68.5369C144.753 68.4091 145.063 68.2197 145.323 67.9688C145.584 67.7131 145.785 67.3958 145.927 67.017L147.546 67.4716C147.376 68.0208 147.089 68.5038 146.687 68.9205C146.285 69.3324 145.787 69.6544 145.195 69.8864C144.604 70.1136 143.938 70.2273 143.2 70.2273ZM67.7763 98.0909V83.0909H69.3956V84.8239H69.5945C69.7176 84.6345 69.888 84.393 70.1058 84.0994C70.3284 83.8011 70.6456 83.536 71.0575 83.304C71.4742 83.0672 72.0376 82.9489 72.7479 82.9489C73.6664 82.9489 74.4761 83.1785 75.1768 83.6378C75.8776 84.0971 76.4245 84.7481 76.8175 85.5909C77.2105 86.4337 77.407 87.428 77.407 88.5739C77.407 89.7292 77.2105 90.7306 76.8175 91.5781C76.4245 92.4209 75.88 93.0743 75.1839 93.5384C74.4879 93.9976 73.6854 94.2273 72.7763 94.2273C72.0755 94.2273 71.5144 94.1113 71.093 93.8793C70.6716 93.6425 70.3473 93.375 70.12 93.0767C69.8928 92.7737 69.7176 92.5227 69.5945 92.3239H69.4524V98.0909H67.7763ZM69.424 88.5455C69.424 89.3693 69.5447 90.0961 69.7862 90.7259C70.0277 91.3509 70.3804 91.8409 70.8445 92.196C71.3085 92.5464 71.8767 92.7216 72.549 92.7216C73.2498 92.7216 73.8345 92.5369 74.3033 92.1676C74.7768 91.7936 75.1319 91.2917 75.3686 90.6619C75.6101 90.0275 75.7308 89.322 75.7308 88.5455C75.7308 87.7784 75.6125 87.0871 75.3757 86.4716C75.1437 85.8513 74.791 85.3613 74.3175 85.0014C73.8487 84.6368 73.2592 84.4545 72.549 84.4545C71.8672 84.4545 71.2943 84.6274 70.8303 84.973C70.3662 85.3139 70.0159 85.7921 69.7791 86.4077C69.5424 87.0185 69.424 87.7311 69.424 88.5455ZM84.5376 94.2273C83.4865 94.2273 82.5798 93.9953 81.8175 93.5312C81.0599 93.0625 80.4751 92.4091 80.0632 91.571C79.656 90.7282 79.4524 89.7481 79.4524 88.6307C79.4524 87.5133 79.656 86.5284 80.0632 85.6761C80.4751 84.8191 81.0481 84.1515 81.782 83.6733C82.5206 83.1903 83.3823 82.9489 84.3672 82.9489C84.9354 82.9489 85.4964 83.0436 86.0504 83.233C86.6044 83.4223 87.1087 83.7301 87.5632 84.1562C88.0178 84.5777 88.38 85.1364 88.6499 85.8324C88.9197 86.5284 89.0547 87.3854 89.0547 88.4034V89.1136H80.6456V87.6648H87.3501C87.3501 87.0492 87.227 86.5 86.9808 86.017C86.7393 85.5341 86.3937 85.1529 85.9439 84.8736C85.4988 84.5942 84.9732 84.4545 84.3672 84.4545C83.6996 84.4545 83.1219 84.6203 82.6342 84.9517C82.1513 85.2784 81.7796 85.7045 81.5192 86.2301C81.2588 86.7557 81.1286 87.3191 81.1286 87.9205V88.8864C81.1286 89.7102 81.2706 90.4086 81.5547 90.9815C81.8435 91.5497 82.2436 91.983 82.755 92.2812C83.2663 92.5748 83.8606 92.7216 84.5376 92.7216C84.978 92.7216 85.3757 92.66 85.7308 92.5369C86.0907 92.4091 86.4008 92.2197 86.6612 91.9688C86.9216 91.7131 87.1229 91.3958 87.2649 91.017L88.8842 91.4716C88.7138 92.0208 88.4273 92.5038 88.0249 92.9205C87.6224 93.3324 87.1252 93.6544 86.5334 93.8864C85.9415 94.1136 85.2763 94.2273 84.5376 94.2273ZM98.3374 83.0909V84.6534H93.2805V94H91.6044V83.0909H98.3374ZM102.46 91.5284L107.716 83.0909H109.648V94H107.972V85.5625L102.744 94H100.784V83.0909H102.46V91.5284ZM117.15 94.2273C116.165 94.2273 115.301 93.9929 114.557 93.5241C113.819 93.0554 113.241 92.3996 112.824 91.5568C112.412 90.714 112.206 89.7292 112.206 88.6023C112.206 87.4659 112.412 86.474 112.824 85.6264C113.241 84.7789 113.819 84.1207 114.557 83.652C115.301 83.1832 116.165 82.9489 117.15 82.9489C118.134 82.9489 118.996 83.1832 119.735 83.652C120.478 84.1207 121.056 84.7789 121.468 85.6264C121.884 86.474 122.093 87.4659 122.093 88.6023C122.093 89.7292 121.884 90.714 121.468 91.5568C121.056 92.3996 120.478 93.0554 119.735 93.5241C118.996 93.9929 118.134 94.2273 117.15 94.2273ZM117.15 92.7216C117.898 92.7216 118.513 92.5298 118.996 92.1463C119.479 91.7628 119.837 91.2585 120.069 90.6335C120.301 90.0085 120.417 89.3314 120.417 88.6023C120.417 87.8731 120.301 87.1937 120.069 86.5639C119.837 85.9342 119.479 85.4252 118.996 85.0369C118.513 84.6487 117.898 84.4545 117.15 84.4545C116.401 84.4545 115.786 84.6487 115.303 85.0369C114.82 85.4252 114.462 85.9342 114.23 86.5639C113.998 87.1937 113.882 87.8731 113.882 88.6023C113.882 89.3314 113.998 90.0085 114.23 90.6335C114.462 91.2585 114.82 91.7628 115.303 92.1463C115.786 92.5298 116.401 92.7216 117.15 92.7216ZM131.952 87.7784V89.3409H125.93V87.7784H131.952ZM126.327 83.0909V94H124.651V83.0909H126.327ZM133.231 83.0909V94H131.555V83.0909H133.231Z" fill="white"/>
<circle cx="100" cy="164" r="25" fill="white"/>
<path d="M96.451 170V168.722L101.252 163.466C101.816 162.85 102.28 162.315 102.644 161.861C103.009 161.402 103.279 160.971 103.454 160.568C103.634 160.161 103.724 159.735 103.724 159.29C103.724 158.778 103.601 158.336 103.354 157.962C103.113 157.588 102.781 157.299 102.36 157.095C101.939 156.892 101.465 156.79 100.94 156.79C100.381 156.79 99.8932 156.906 99.4766 157.138C99.0646 157.365 98.745 157.685 98.5178 158.097C98.2952 158.509 98.1839 158.991 98.1839 159.545H96.5078C96.5078 158.693 96.7043 157.945 97.0973 157.301C97.4903 156.657 98.0253 156.155 98.7024 155.795C99.3842 155.436 100.149 155.256 100.996 155.256C101.849 155.256 102.604 155.436 103.262 155.795C103.92 156.155 104.436 156.641 104.81 157.251C105.184 157.862 105.371 158.542 105.371 159.29C105.371 159.825 105.274 160.348 105.08 160.859C104.891 161.366 104.559 161.932 104.086 162.557C103.617 163.177 102.966 163.935 102.133 164.83L98.8658 168.324V168.438H105.627V170H96.451Z" fill="#1E1E1E"/>
</svg>
