<svg width="200" height="200" viewBox="0 0 200 200" fill="none" xmlns="http://www.w3.org/2000/svg">
<circle opacity="0.7" cx="100" cy="100" r="100" fill="#04C2FE"/>
<path d="M57.0368 70V55.4545H58.7981V61.9318H66.5538V55.4545H68.3152V70H66.5538V63.4943H58.7981V70H57.0368ZM74.8244 70.2557C74.1331 70.2557 73.5057 70.1255 72.9423 69.8651C72.3788 69.5999 71.9314 69.2188 71.6 68.7216C71.2685 68.2197 71.1028 67.6136 71.1028 66.9034C71.1028 66.2784 71.2259 65.7718 71.4721 65.3835C71.7183 64.9905 72.0474 64.6828 72.4593 64.4602C72.8713 64.2377 73.3258 64.072 73.823 63.9631C74.3249 63.8494 74.8291 63.7595 75.3358 63.6932C75.9986 63.608 76.536 63.544 76.948 63.5014C77.3646 63.4541 77.6677 63.3759 77.8571 63.267C78.0512 63.1581 78.1483 62.9687 78.1483 62.6989V62.642C78.1483 61.9413 77.9565 61.3968 77.573 61.0085C77.1942 60.6203 76.6189 60.4261 75.8471 60.4261C75.0469 60.4261 74.4196 60.6013 73.965 60.9517C73.5105 61.3021 73.1909 61.6761 73.0062 62.0739L71.4153 61.5057C71.6994 60.8428 72.0782 60.3267 72.5517 59.9574C73.0299 59.5833 73.5507 59.3229 74.1142 59.1761C74.6824 59.0246 75.2411 58.9489 75.7903 58.9489C76.1407 58.9489 76.5431 58.9915 76.9977 59.0767C77.457 59.1572 77.8997 59.3253 78.3258 59.581C78.7567 59.8366 79.1142 60.2225 79.3983 60.7386C79.6824 61.2547 79.8244 61.946 79.8244 62.8125V70H78.1483V68.5227H78.063C77.9494 68.7595 77.76 69.0128 77.4949 69.2827C77.2297 69.5526 76.877 69.7822 76.4366 69.9716C75.9963 70.161 75.4589 70.2557 74.8244 70.2557ZM75.0801 68.75C75.743 68.75 76.3017 68.6198 76.7562 68.3594C77.2155 68.099 77.5611 67.7628 77.7931 67.3509C78.0299 66.9389 78.1483 66.5057 78.1483 66.0511V64.517C78.0772 64.6023 77.921 64.6804 77.6795 64.7514C77.4428 64.8177 77.1681 64.8769 76.8556 64.929C76.5479 64.9763 76.2472 65.0189 75.9537 65.0568C75.6648 65.09 75.4305 65.1184 75.2505 65.142C74.8149 65.1989 74.4077 65.2912 74.0289 65.419C73.6549 65.5421 73.3519 65.7292 73.1199 65.9801C72.8926 66.2263 72.7789 66.5625 72.7789 66.9886C72.7789 67.571 72.9944 68.0114 73.4252 68.3097C73.8609 68.6032 74.4125 68.75 75.0801 68.75ZM82.2019 70L86.6337 64.4602L82.2587 59.0909H84.2473L87.8837 63.75H88.7928V59.0909H90.4689V63.75H91.3496L94.986 59.0909H96.9746L92.628 64.4602L97.0314 70H95.0144L91.3212 65.3125H90.4689V70H88.7928V65.3125H87.9405L84.2189 70H82.2019ZM105.393 67.7273L109.199 59.0909H110.79L106.074 70H104.711L100.08 59.0909H101.643L105.393 67.7273ZM101.103 59.0909V70H99.4267V59.0909H101.103ZM109.682 70V59.0909H111.358V70H109.682ZM116.103 67.5284L121.358 59.0909H123.29V70H121.614V61.5625L116.387 70H114.427V59.0909H116.103V67.5284ZM124.876 60.6534V59.0909H133.74V60.6534H130.16V70H128.484V60.6534H124.876ZM140.192 70.2273C139.141 70.2273 138.234 69.9953 137.472 69.5312C136.714 69.0625 136.129 68.4091 135.718 67.571C135.31 66.7282 135.107 65.7481 135.107 64.6307C135.107 63.5133 135.31 62.5284 135.718 61.6761C136.129 60.8191 136.702 60.1515 137.436 59.6733C138.175 59.1903 139.037 58.9489 140.021 58.9489C140.59 58.9489 141.151 59.0436 141.705 59.233C142.259 59.4223 142.763 59.7301 143.218 60.1562C143.672 60.5777 144.034 61.1364 144.304 61.8324C144.574 62.5284 144.709 63.3854 144.709 64.4034V65.1136H136.3V63.6648H143.004C143.004 63.0492 142.881 62.5 142.635 62.017C142.394 61.5341 142.048 61.1529 141.598 60.8736C141.153 60.5942 140.628 60.4545 140.021 60.4545C139.354 60.4545 138.776 60.6203 138.289 60.9517C137.806 61.2784 137.434 61.7045 137.173 62.2301C136.913 62.7557 136.783 63.3191 136.783 63.9205V64.8864C136.783 65.7102 136.925 66.4086 137.209 66.9815C137.498 67.5497 137.898 67.983 138.409 68.2812C138.921 68.5748 139.515 68.7216 140.192 68.7216C140.632 68.7216 141.03 68.66 141.385 68.5369C141.745 68.4091 142.055 68.2197 142.316 67.9688C142.576 67.7131 142.777 67.3958 142.919 67.017L144.539 67.4716C144.368 68.0208 144.082 68.5038 143.679 68.9205C143.277 69.3324 142.78 69.6544 142.188 69.8864C141.596 70.1136 140.931 70.2273 140.192 70.2273ZM73.3232 94V83.0909H81.9027V94H80.2266V84.6534H74.9993V94H73.3232ZM89.3956 94.2273C88.4107 94.2273 87.5466 93.9929 86.8033 93.5241C86.0646 93.0554 85.487 92.3996 85.0703 91.5568C84.6584 90.714 84.4524 89.7292 84.4524 88.6023C84.4524 87.4659 84.6584 86.474 85.0703 85.6264C85.487 84.7789 86.0646 84.1207 86.8033 83.652C87.5466 83.1832 88.4107 82.9489 89.3956 82.9489C90.3804 82.9489 91.2422 83.1832 91.9808 83.652C92.7242 84.1207 93.3018 84.7789 93.7138 85.6264C94.1304 86.474 94.3388 87.4659 94.3388 88.6023C94.3388 89.7292 94.1304 90.714 93.7138 91.5568C93.3018 92.3996 92.7242 93.0554 91.9808 93.5241C91.2422 93.9929 90.3804 94.2273 89.3956 94.2273ZM89.3956 92.7216C90.1437 92.7216 90.7592 92.5298 91.2422 92.1463C91.7251 91.7628 92.0826 91.2585 92.3146 90.6335C92.5466 90.0085 92.6626 89.3314 92.6626 88.6023C92.6626 87.8731 92.5466 87.1937 92.3146 86.5639C92.0826 85.9342 91.7251 85.4252 91.2422 85.0369C90.7592 84.6487 90.1437 84.4545 89.3956 84.4545C88.6475 84.4545 88.032 84.6487 87.549 85.0369C87.0661 85.4252 86.7086 85.9342 86.4766 86.5639C86.2446 87.1937 86.1286 87.8731 86.1286 88.6023C86.1286 89.3314 86.2446 90.0085 86.4766 90.6335C86.7086 91.2585 87.0661 91.7628 87.549 92.1463C88.032 92.5298 88.6475 92.7216 89.3956 92.7216ZM98.5735 91.5284L103.829 83.0909H105.761V94H104.085V85.5625L98.8576 94H96.8974V83.0909H98.5735V91.5284ZM113.263 94.2273C112.24 94.2273 111.359 93.9858 110.621 93.5028C109.882 93.0199 109.314 92.3546 108.916 91.5071C108.518 90.6596 108.32 89.6913 108.32 88.6023C108.32 87.4943 108.523 86.5166 108.93 85.669C109.342 84.8168 109.915 84.1515 110.649 83.6733C111.388 83.1903 112.25 82.9489 113.234 82.9489C114.001 82.9489 114.693 83.0909 115.308 83.375C115.924 83.6591 116.428 84.0568 116.821 84.5682C117.214 85.0795 117.458 85.6761 117.553 86.358H115.876C115.749 85.8608 115.464 85.4205 115.024 85.0369C114.589 84.6487 114.001 84.4545 113.263 84.4545C112.609 84.4545 112.036 84.625 111.544 84.9659C111.056 85.3021 110.675 85.7779 110.401 86.3935C110.131 87.0043 109.996 87.7216 109.996 88.5455C109.996 89.3883 110.128 90.1222 110.393 90.7472C110.663 91.3722 111.042 91.8575 111.53 92.2031C112.022 92.5488 112.6 92.7216 113.263 92.7216C113.698 92.7216 114.094 92.6458 114.449 92.4943C114.804 92.3428 115.105 92.125 115.351 91.8409C115.597 91.5568 115.772 91.2159 115.876 90.8182H117.553C117.458 91.4621 117.223 92.0421 116.849 92.5582C116.48 93.0696 115.99 93.4768 115.379 93.7798C114.773 94.0781 114.068 94.2273 113.263 94.2273ZM120.003 94V83.0909H121.679V87.8352H122.787L126.707 83.0909H128.866L124.463 88.3466L128.923 94H126.764L123.185 89.3977H121.679V94H120.003Z" fill="white"/>
<circle cx="100" cy="164" r="25" fill="white"/>
<path d="M100.967 175.199C100.134 175.199 99.3833 175.033 98.7157 174.702C98.0481 174.37 97.5131 173.916 97.1106 173.338C96.7082 172.76 96.488 172.102 96.4501 171.364H98.1547C98.2209 172.022 98.5192 172.566 99.0495 172.997C99.5846 173.423 100.224 173.636 100.967 173.636C101.564 173.636 102.094 173.497 102.558 173.217C103.027 172.938 103.394 172.554 103.659 172.067C103.929 171.574 104.064 171.018 104.064 170.398C104.064 169.763 103.924 169.197 103.645 168.7C103.37 168.198 102.991 167.803 102.508 167.514C102.025 167.225 101.474 167.079 100.854 167.074C100.408 167.069 99.9515 167.138 99.4828 167.28C99.014 167.417 98.6281 167.595 98.3251 167.812L96.6774 167.614L97.5581 160.455H105.115V162.017H99.0353L98.524 166.307H98.6092C98.9075 166.07 99.2815 165.874 99.7314 165.717C100.181 165.561 100.65 165.483 101.138 165.483C102.028 165.483 102.821 165.696 103.517 166.122C104.218 166.544 104.767 167.121 105.165 167.855C105.567 168.589 105.768 169.427 105.768 170.369C105.768 171.297 105.56 172.126 105.143 172.855C104.731 173.58 104.163 174.152 103.439 174.574C102.714 174.991 101.89 175.199 100.967 175.199Z" fill="#1E1E1E"/>
</svg>
